<?xml version="1.0" standalone="no"?>
<!DOCTYPE svg PUBLIC "-//W3C//DTD SVG 20010904//EN"
 "http://www.w3.org/TR/2001/REC-SVG-20010904/DTD/svg10.dtd">
<svg version="1.0" xmlns="http://www.w3.org/2000/svg"
 width="310.000000pt" height="310.000000pt" viewBox="0 0 310.000000 310.000000"
 preserveAspectRatio="xMidYMid meet">
<metadata>
Created by potrace 1.14, written by Peter Selinger 2001-2017
</metadata>
<g transform="translate(0.000000,310.000000) scale(0.100000,-0.100000)"
fill="#000000" stroke="none">
<path d="M962 1885 c-109 -31 -202 -109 -248 -208 -99 -217 -15 -476 184 -570
156 -73 349 -33 526 110 32 27 68 56 81 67 23 18 23 18 101 -48 144 -120 280
-173 419 -163 211 14 339 151 352 378 15 242 -108 408 -328 442 -147 23 -315
-45 -478 -192 -18 -17 -38 -31 -43 -31 -6 0 -31 18 -56 41 -170 150 -363 215
-510 174z m230 -268 c64 -33 166 -115 167 -134 1 -7 -27 -35 -61 -63 -126
-101 -240 -134 -307 -88 -55 37 -74 71 -79 136 -3 45 0 68 16 98 25 48 40 62
89 80 50 17 105 8 175 -29z m878 14 c48 -34 70 -79 70 -143 0 -115 -52 -173
-155 -173 -76 0 -151 36 -237 114 l-61 55 51 46 c129 116 255 154 332 101z"/>
</g>
</svg>
